<svg xmlns="http://www.w3.org/2000/svg" width="24" height="15" viewBox="0 0 24 15">
  <g id="Group_5355" data-name="Group 5355" transform="translate(-246 -184)">
    <rect id="Rectangle_2697" data-name="Rectangle 2697" width="24" height="15" transform="translate(246 184)" fill="#4caf50"/>
    <g id="Group_5354" data-name="Group 5354" transform="translate(247.769 184.968)">
      <path id="Path_6148" data-name="Path 6148" d="M807.042,545.651a.381.381,0,0,0-.18.083q-1.606,1.076-3.213,2.151-2.312,1.543-4.625,3.085c-.653.436-1.3.876-1.958,1.311-.191.127-.195.134-.007.259l1.547,1.03,2.69,1.8q1.87,1.248,3.74,2.5.945.631,1.884,1.271a.171.171,0,0,0,.223-.018q1.239-.834,2.48-1.664,2.084-1.391,4.169-2.78l3.215-2.148c.155-.1.155-.122.016-.214l-2.622-1.751-3.932-2.628-3.285-2.192C807.133,545.7,807.081,545.675,807.042,545.651Zm-3.5,4.9a.727.727,0,0,1,.031-.077,3.945,3.945,0,0,1,4.3-1.932,3.851,3.851,0,0,1,2.2,1.36,3.9,3.9,0,0,1,.891,2.482c0,.072.006.144,0,.214a2.826,2.826,0,0,1-.222,1.034.372.372,0,0,1-.029.179,3.952,3.952,0,0,1-4.24,2.516,3.77,3.77,0,0,1-2.173-1.045,3.863,3.863,0,0,1-1.178-3.537A3.43,3.43,0,0,1,803.543,550.555Z" transform="translate(-796.921 -545.651)" fill="#fce93b"/>
      <path id="Path_6149" data-name="Path 6149" d="M907.768,654.422a3.863,3.863,0,0,0,1.178,3.537A3.769,3.769,0,0,0,911.119,659a3.952,3.952,0,0,0,4.24-2.516.369.369,0,0,0,.029-.179c-.07-.045-.141-.086-.208-.134a8.639,8.639,0,0,0-1.323-.788,10.628,10.628,0,0,0-4.483-1.029C908.837,654.349,908.3,654.387,907.768,654.422Z" transform="translate(-901.561 -648.324)" fill="#3f51b5"/>
      <path id="Path_6150" data-name="Path 6150" d="M923.66,599.944a3.9,3.9,0,0,0-.891-2.482,3.944,3.944,0,0,0-4.875-1.012,3.8,3.8,0,0,0-1.631,1.583.721.721,0,0,0-.031.076c.321-.009.642-.028.962-.026a12.922,12.922,0,0,1,2.57.254,10.9,10.9,0,0,1,2.922,1.043C923.017,599.556,923.336,599.755,923.66,599.944Z" transform="translate(-909.61 -593.206)" fill="#3f51b5"/>
      <path id="Path_6151" data-name="Path 6151" d="M916.594,635.384c-.324-.189-.643-.388-.974-.564a10.908,10.908,0,0,0-2.922-1.043,12.937,12.937,0,0,0-2.57-.254c-.321,0-.642.017-.962.027a3.424,3.424,0,0,0-.415,1.194c.535-.035,1.069-.073,1.606-.063a10.627,10.627,0,0,1,4.483,1.029,8.625,8.625,0,0,1,1.323.787c.067.049.139.09.208.134a2.823,2.823,0,0,0,.222-1.034A2.127,2.127,0,0,0,916.594,635.384Z" transform="translate(-902.544 -628.646)" fill="#fdfefd"/>
    </g>
  </g>
</svg>
